<svg width="190" height="128" viewBox="0 0 190 128" fill="none" xmlns="http://www.w3.org/2000/svg">
<path fill-rule="evenodd" clip-rule="evenodd" d="M53.7269 113.718H147.178C151.531 113.718 155.06 110.189 155.06 105.836C155.06 101.484 151.531 97.955 147.178 97.955C147.178 97.955 140.423 94.4263 140.423 90.0735C140.423 85.7207 144.872 82.1921 150.36 82.1921H161.815C166.168 82.1921 169.697 78.6634 169.697 74.3106C169.697 69.9578 166.168 66.4292 161.815 66.4292H137.045C141.398 66.4292 144.926 62.9006 144.926 58.5478C144.926 54.195 141.398 50.6663 137.045 50.6663H182.082C186.435 50.6663 189.963 47.1377 189.963 42.7849C189.963 38.4321 186.435 34.9034 182.082 34.9034H71.7416C67.3888 34.9034 63.8602 38.4321 63.8602 42.7849C63.8602 47.1377 67.3888 50.6663 71.7416 50.6663H26.7048C22.352 50.6663 18.8234 54.195 18.8234 58.5478C18.8234 62.9006 22.352 66.4292 26.7048 66.4292H54.8528C59.2056 66.4292 62.7342 69.9578 62.7342 74.3106C62.7342 78.6634 59.2056 82.1921 54.8528 82.1921H9.81601C5.46321 82.1921 1.93457 85.7207 1.93457 90.0735C1.93457 94.4263 5.46321 97.955 9.81601 97.955H53.7269C49.3741 97.955 45.8454 101.484 45.8454 105.836C45.8454 110.189 49.3741 113.718 53.7269 113.718ZM174.2 74.3104C174.2 78.6632 177.729 82.1919 182.082 82.1919C186.434 82.1919 189.963 78.6632 189.963 74.3104C189.963 69.9576 186.434 66.429 182.082 66.429C177.729 66.429 174.2 69.9576 174.2 74.3104Z" fill="#F4F4F4"/>
<path d="M124.936 49.701H113.372L114.568 36.1441L113.372 25.777L107.79 17.4037L98.6192 13.8151H91.0433L83.4673 17.4037L77.0876 24.1821L75.4927 29.3656V37.3403V48.1061H63.9294L64.7269 37.3403V27.372L69.5117 16.6062L78.6825 7.03662L89.0496 2.25183H97.423L105.796 4.24549L118.556 13.8151L124.936 27.372V49.701Z" fill="white"/>
<path d="M43.5938 57.5739C43.5938 52.5993 47.6265 48.5665 52.6011 48.5665H137.459C142.434 48.5665 146.467 52.5993 146.467 57.5739V118.993C146.467 123.967 142.434 128 137.459 128H52.6011C47.6265 128 43.5938 123.967 43.5938 118.993V57.5739Z" fill="white"/>
<path fill-rule="evenodd" clip-rule="evenodd" d="M137.459 53.0702H52.6011C50.1138 53.0702 48.0974 55.0866 48.0974 57.5739V118.993C48.0974 121.48 50.1138 123.496 52.6011 123.496H137.459C139.947 123.496 141.963 121.48 141.963 118.993V57.5739C141.963 55.0866 139.947 53.0702 137.459 53.0702ZM52.6011 48.5665C47.6265 48.5665 43.5938 52.5993 43.5938 57.5739V118.993C43.5938 123.967 47.6265 128 52.6011 128H137.459C142.434 128 146.467 123.967 146.467 118.993V57.5739C146.467 52.5993 142.434 48.5665 137.459 48.5665H52.6011Z" fill="#6E57E0"/>
<path fill-rule="evenodd" clip-rule="evenodd" d="M61.2781 32.9542C61.2781 14.7541 76.0322 0 94.2323 0C112.432 0 127.187 14.7541 127.187 32.9542V50.8972H122.683V32.9542C122.683 17.2414 109.945 4.50368 94.2323 4.50368C78.5195 4.50368 65.7818 17.2414 65.7818 32.9542V50.8972H61.2781V32.9542Z" fill="#6E57E0"/>
<path fill-rule="evenodd" clip-rule="evenodd" d="M73.2397 32.5553C73.2397 20.7414 82.8168 11.1643 94.6307 11.1643C106.445 11.1643 116.022 20.7414 116.022 32.5553V50.897H111.518V32.5553C111.518 23.2287 103.957 15.668 94.6307 15.668C85.3041 15.668 77.7434 23.2287 77.7434 32.5553V50.897H73.2397V32.5553Z" fill="#6E57E0"/>
<path d="M58.2307 95.7032C58.2307 88.2412 64.2798 82.1921 71.7418 82.1921H119.03C126.492 82.1921 132.541 88.2412 132.541 95.7032C132.541 103.165 126.492 109.214 119.03 109.214H71.7418C64.2798 109.214 58.2307 103.165 58.2307 95.7032Z" fill="#F4F4F4"/>
<path fill-rule="evenodd" clip-rule="evenodd" d="M119.03 86.6958H71.7418C66.7671 86.6958 62.7344 90.7285 62.7344 95.7032C62.7344 100.678 66.7671 104.711 71.7418 104.711H119.03C124.005 104.711 128.038 100.678 128.038 95.7032C128.038 90.7285 124.005 86.6958 119.03 86.6958ZM71.7418 82.1921C64.2798 82.1921 58.2307 88.2412 58.2307 95.7032C58.2307 103.165 64.2798 109.214 71.7418 109.214H119.03C126.492 109.214 132.541 103.165 132.541 95.7032C132.541 88.2412 126.492 82.1921 119.03 82.1921H71.7418Z" fill="#6E57E0"/>
<path d="M75.1195 99.081C76.9849 99.081 78.4972 97.5687 78.4972 95.7032C78.4972 93.8377 76.9849 92.3254 75.1195 92.3254C73.254 92.3254 71.7417 93.8377 71.7417 95.7032C71.7417 97.5687 73.254 99.081 75.1195 99.081Z" fill="#6E57E0"/>
<path d="M87.8778 99.081C89.7432 99.081 91.2555 97.5687 91.2555 95.7032C91.2555 93.8377 89.7432 92.3254 87.8778 92.3254C86.0123 92.3254 84.5 93.8377 84.5 95.7032C84.5 97.5687 86.0123 99.081 87.8778 99.081Z" fill="#6E57E0"/>
<path d="M100.638 99.081C102.504 99.081 104.016 97.5687 104.016 95.7032C104.016 93.8377 102.504 92.3254 100.638 92.3254C98.7728 92.3254 97.2605 93.8377 97.2605 95.7032C97.2605 97.5687 98.7728 99.081 100.638 99.081Z" fill="#6E57E0"/>
<path d="M113.397 99.081C115.263 99.081 116.775 97.5687 116.775 95.7032C116.775 93.8377 115.263 92.3254 113.397 92.3254C111.532 92.3254 110.02 93.8377 110.02 95.7032C110.02 97.5687 111.532 99.081 113.397 99.081Z" fill="#6E57E0"/>
<path fill-rule="evenodd" clip-rule="evenodd" d="M178.42 71.9022C178.676 72.0033 178.955 72.0589 179.247 72.0589H181.776C183.02 72.0589 184.028 71.0507 184.028 69.807C184.028 68.5634 183.02 67.5552 181.776 67.5552H179.247C178.955 67.5552 178.676 67.6107 178.42 67.7118C177.586 68.0415 176.995 68.8553 176.995 69.807C176.995 69.807 176.995 69.807 176.995 69.8071C176.995 70.7588 177.586 71.5726 178.42 71.9022ZM174.633 71.9022C175.467 71.5726 176.058 70.7588 176.058 69.8071C176.058 69.807 176.058 69.807 176.058 69.807C176.058 68.8553 175.467 68.0415 174.633 67.7119C174.377 67.6108 174.098 67.5552 173.806 67.5552H154.251C153.007 67.5552 151.999 68.5634 151.999 69.8071C151.999 71.0507 153.007 72.0589 154.251 72.0589H173.806C174.098 72.0589 174.377 72.0033 174.633 71.9022ZM155.045 78.662C155.045 77.4184 156.053 76.4102 157.297 76.4102H166.605C167.849 76.4102 168.857 77.4184 168.857 78.662C168.857 79.9057 167.849 80.9138 166.605 80.9138H157.297C156.053 80.9138 155.045 79.9057 155.045 78.662Z" fill="#6E57E0"/>
<path fill-rule="evenodd" clip-rule="evenodd" d="M11.4363 85.57C11.4363 84.3263 12.4445 83.3181 13.6881 83.3181H33.2434C34.4871 83.3181 35.4953 84.3263 35.4953 85.57C35.4953 86.8136 34.4871 87.8218 33.2434 87.8218H13.6881C12.4445 87.8218 11.4363 86.8136 11.4363 85.57Z" fill="#6E57E0"/>
<path fill-rule="evenodd" clip-rule="evenodd" d="M0 85.57C0 84.3263 1.00818 83.3181 2.25184 83.3181H7.05784C8.30149 83.3181 9.30968 84.3263 9.30968 85.57C9.30968 86.8136 8.30149 87.8218 7.05784 87.8218H2.25184C1.00818 87.8218 0 86.8136 0 85.57Z" fill="#6E57E0"/>
<path fill-rule="evenodd" clip-rule="evenodd" d="M27.0071 95.5632C27.0071 94.3196 28.0153 93.3114 29.2589 93.3114H38.5674C39.811 93.3114 40.8192 94.3196 40.8192 95.5632C40.8192 96.8069 39.811 97.8151 38.5674 97.8151H29.2589C28.0153 97.8151 27.0071 96.8069 27.0071 95.5632Z" fill="#6E57E0"/>
</svg>