<svg width="218" height="149" viewBox="0 0 218 149" fill="none" xmlns="http://www.w3.org/2000/svg">
<path fill-rule="evenodd" clip-rule="evenodd" d="M60.0479 121.177H168.395C173.442 121.177 177.533 117.086 177.533 112.039C177.533 106.993 173.442 102.902 168.395 102.902C168.395 102.902 160.563 98.8104 160.563 93.7638C160.563 88.7172 165.721 84.6261 172.084 84.6261H185.365C190.412 84.6261 194.503 80.535 194.503 75.4884C194.503 70.4417 190.412 66.3506 185.365 66.3506H156.647C161.693 66.3506 165.784 62.2595 165.784 57.2129C165.784 52.1663 161.693 48.0752 156.647 48.0752H208.862C213.909 48.0752 218 43.9841 218 38.9375C218 33.8908 213.909 29.7997 208.862 29.7997H80.9341C75.8875 29.7997 71.7964 33.8908 71.7964 38.9375C71.7964 43.9841 75.8875 48.0752 80.9341 48.0752H28.7186C23.6719 48.0752 19.5808 52.1663 19.5808 57.2129C19.5808 62.2595 23.6719 66.3506 28.7186 66.3506H61.3533C66.3999 66.3506 70.491 70.4417 70.491 75.4884C70.491 80.535 66.3999 84.6261 61.3533 84.6261H9.13772C4.0911 84.6261 0 88.7172 0 93.7638C0 98.8104 4.0911 102.902 9.13772 102.902H60.0479C55.0013 102.902 50.9102 106.993 50.9102 112.039C50.9102 117.086 55.0013 121.177 60.0479 121.177ZM199.725 75.4884C199.725 80.535 203.816 84.6261 208.862 84.6261C213.909 84.6261 218 80.535 218 75.4884C218 70.4417 213.909 66.3506 208.862 66.3506C203.816 66.3506 199.725 70.4417 199.725 75.4884Z" fill="#F4F4F4"/>
<path d="M80.2144 86.1049L90.515 76.2948L110.135 58.1458L118.965 48.3357C116.348 45.5562 107.389 36.5636 92.4771 22.8294C77.5657 9.09519 61.7386 17.1068 55.689 22.8294C47.8408 27.1459 48.1678 45.5563 49.3124 54.2219L80.2144 86.1049Z" fill="#F4F4F4"/>
<path d="M136.932 66.4853L126.386 76.0316L106.313 93.678L97.2379 103.262C99.7827 106.106 108.512 115.323 123.071 129.43C137.63 143.537 153.655 135.929 159.848 130.361C167.802 126.245 167.942 107.832 167.017 99.1403L136.932 66.4853Z" fill="#F4F4F4"/>
<path fill-rule="evenodd" clip-rule="evenodd" d="M54.1281 63.8077C42.3814 52.061 42.3814 33.0159 54.1281 21.2692C65.8748 9.52256 84.9199 9.52257 96.6665 21.2692L120.429 45.0313C121.925 46.5279 121.925 48.9543 120.429 50.4509L111.234 59.6456C110.214 60.6651 108.561 60.6652 107.542 59.6456C106.522 58.626 106.522 56.9729 107.542 55.9534L115.754 47.7411L92.9743 24.9614C83.2668 15.2539 67.5278 15.2539 57.8203 24.9614C48.1128 34.669 48.1128 50.4079 57.8203 60.1155L80.5999 82.8951L88.1186 75.3765C89.1381 74.3569 90.7912 74.3569 91.8108 75.3765C92.8303 76.3961 92.8303 78.0491 91.8108 79.0687L83.3097 87.5697C81.8132 89.0663 79.3867 89.0663 77.8901 87.5697L54.1281 63.8077Z" fill="#6E57E0"/>
<path fill-rule="evenodd" clip-rule="evenodd" d="M138.759 45.7711C137.739 44.7516 137.739 43.0985 138.759 42.0789L154.713 26.1242C155.733 25.1047 157.386 25.1047 158.406 26.1242C159.425 27.1438 159.425 28.7969 158.406 29.8164L142.451 45.7711C141.431 46.7907 139.778 46.7907 138.759 45.7711Z" fill="#6E57E0"/>
<path fill-rule="evenodd" clip-rule="evenodd" d="M125.155 35.818C123.759 35.4568 122.92 34.0323 123.282 32.6364L128.934 10.7926C129.295 9.39668 130.72 8.5579 132.116 8.91913C133.512 9.28037 134.35 10.7048 133.989 12.1007L128.337 33.9445C127.975 35.3405 126.551 36.1792 125.155 35.818Z" fill="#6E57E0"/>
<path fill-rule="evenodd" clip-rule="evenodd" d="M148.483 59.1463C148.844 60.5422 150.268 61.381 151.664 61.0198L173.508 55.3671C174.904 55.0058 175.743 53.5814 175.381 52.1855C175.02 50.7896 173.596 49.9508 172.2 50.312L150.356 55.9647C148.96 56.3259 148.121 57.7504 148.483 59.1463Z" fill="#6E57E0"/>
<path fill-rule="evenodd" clip-rule="evenodd" d="M78.6322 105.898C77.6127 104.879 75.9596 104.879 74.94 105.898L58.9853 121.853C57.9658 122.873 57.9658 124.526 58.9853 125.545C60.0049 126.565 61.658 126.565 62.6775 125.545L78.6322 109.591C79.6518 108.571 79.6518 106.918 78.6322 105.898Z" fill="#6E57E0"/>
<path fill-rule="evenodd" clip-rule="evenodd" d="M68.6799 92.2946C68.3187 90.8987 66.8943 90.0599 65.4984 90.4212L43.6545 96.0738C42.2586 96.4351 41.4199 97.8595 41.7811 99.2554C42.1423 100.651 43.5668 101.49 44.9627 101.129L66.8065 95.4762C68.2024 95.115 69.0412 93.6905 68.6799 92.2946Z" fill="#6E57E0"/>
<path fill-rule="evenodd" clip-rule="evenodd" d="M92.0062 115.622C93.4021 115.984 94.2409 117.408 93.8796 118.804L88.2269 140.648C87.8657 142.044 86.4412 142.883 85.0453 142.521C83.6494 142.16 82.8107 140.736 83.1719 139.34L88.8246 117.496C89.1858 116.1 90.6103 115.261 92.0062 115.622Z" fill="#6E57E0"/>
<path fill-rule="evenodd" clip-rule="evenodd" d="M153.404 135.982C142.383 140.823 129.052 138.731 120.028 129.707L96.2655 105.945C94.7689 104.448 94.7689 102.022 96.2655 100.525L104.767 92.0244C105.786 91.0049 107.439 91.0049 108.459 92.0244C109.478 93.044 109.478 94.6971 108.459 95.7166L100.94 103.235L123.72 126.015C130.943 133.238 141.505 135.087 150.437 131.561C151.309 133.116 152.302 134.594 153.404 135.982ZM162.231 86.8338L138.804 63.4066C137.307 61.91 134.881 61.91 133.384 63.4066L124.19 72.6013C123.17 73.6209 123.17 75.2739 124.19 76.2935C125.209 77.3131 126.862 77.3131 127.882 76.2935L136.094 68.0812L157.943 89.9299C159.285 88.7891 160.718 87.7529 162.231 86.8338Z" fill="#6E57E0"/>
<path d="M201.03 115.956C201.03 129.654 189.926 140.758 176.228 140.758C162.53 140.758 151.425 129.654 151.425 115.956C151.425 102.258 162.53 91.1532 176.228 91.1532C189.926 91.1532 201.03 102.258 201.03 115.956Z" fill="white"/>
<path fill-rule="evenodd" clip-rule="evenodd" d="M176.228 135.536C187.042 135.536 195.809 126.77 195.809 115.956C195.809 105.141 187.042 96.3748 176.228 96.3748C165.413 96.3748 156.647 105.141 156.647 115.956C156.647 126.77 165.413 135.536 176.228 135.536ZM176.228 140.758C189.926 140.758 201.03 129.654 201.03 115.956C201.03 102.258 189.926 91.1532 176.228 91.1532C162.53 91.1532 151.425 102.258 151.425 115.956C151.425 129.654 162.53 140.758 176.228 140.758Z" fill="#6E57E0"/>
<path fill-rule="evenodd" clip-rule="evenodd" d="M167.85 107.527C168.873 106.511 170.526 106.516 171.542 107.539L183.964 120.039C184.98 121.062 184.975 122.715 183.952 123.732C182.929 124.748 181.276 124.743 180.26 123.72L167.838 111.219C166.822 110.196 166.827 108.543 167.85 107.527Z" fill="#6E57E0"/>
<path fill-rule="evenodd" clip-rule="evenodd" d="M167.799 123.68C166.782 122.658 166.788 121.004 167.81 119.988L180.311 107.567C181.334 106.55 182.987 106.555 184.003 107.578C185.02 108.601 185.014 110.254 183.992 111.27L171.491 123.692C170.468 124.708 168.815 124.703 167.799 123.68Z" fill="#6E57E0"/>
</svg>