<svg width="186" height="138" viewBox="0 0 186 138" fill="none" xmlns="http://www.w3.org/2000/svg">
<path d="M140.53 11.6302C139.276 11.2967 137.934 11.7691 137.263 12.8254C123.44 33.867 99.6705 46.4307 73.6267 46.4307H60.1821V90.1817H73.6267C99.6413 90.1817 123.41 102.718 137.234 123.787L137.263 123.815C137.818 124.621 138.751 125.093 139.713 125.093C140.005 125.093 140.267 125.066 140.559 124.982C141.784 124.621 142.63 123.537 142.63 122.314V14.2985C142.63 13.0755 141.784 11.9637 140.53 11.6302Z" fill="white"/>
<path fill-rule="evenodd" clip-rule="evenodd" d="M49.3427 86.9543V46.1181H27.2115C25.1296 46.1181 23.6859 47.7478 23.6859 49.3715V83.7277C23.6859 85.3139 25.1186 86.9543 27.2115 86.9543H32.4296L43.6399 116.431C43.6404 116.433 43.641 116.434 43.6416 116.436C44.3431 118.261 46.2705 119.648 48.5106 119.648C49.1036 119.648 49.7164 119.546 50.3692 119.323L50.8509 119.152C52.1911 118.661 53.1938 117.735 53.7455 116.6C54.2919 115.45 54.3361 114.239 53.8853 113.07L53.881 113.058L43.9537 86.9543H49.3427ZM58.4519 118.862C57.2856 121.275 55.2029 123.126 52.6204 124.065L52.0928 124.252C50.9265 124.655 49.7323 124.869 48.5106 124.869C44.1785 124.869 40.2631 122.214 38.7636 118.298L28.829 92.1758H27.2115C22.4075 92.1758 18.4644 88.3675 18.4644 83.7277V49.3715C18.4644 44.7049 22.4075 40.8965 27.2115 40.8965H51.7874C53.3424 40.8965 54.5643 42.1033 54.5643 43.5785V89.4938C54.5643 90.1831 54.2975 90.8138 53.8547 91.2902C53.3497 91.8333 52.6158 92.1758 51.7874 92.1758H51.5259L58.7573 111.191C59.7293 113.712 59.6183 116.421 58.4519 118.862Z" fill="#6E57E0"/>
<path fill-rule="evenodd" clip-rule="evenodd" d="M137.408 21.5151C122.239 40.5458 98.8826 51.6523 73.6267 51.6523H65.4037V84.9601H73.6267C98.8694 84.9601 122.238 96.0559 137.408 115.128V21.5151ZM137.234 123.787C123.41 102.718 99.6413 90.1817 73.6267 90.1817H60.1821V46.4307H73.6267C99.6705 46.4307 123.44 33.867 137.263 12.8254C137.934 11.7691 139.276 11.2967 140.53 11.6302C141.784 11.9637 142.63 13.0755 142.63 14.2985V122.314C142.63 123.537 141.784 124.621 140.559 124.982C140.267 125.066 140.005 125.093 139.713 125.093C138.751 125.093 137.818 124.621 137.263 123.815L137.234 123.787Z" fill="#6E57E0"/>
<path fill-rule="evenodd" clip-rule="evenodd" d="M149.896 92.4587C151.743 91.7853 153.491 90.9497 155.118 89.9726C162.575 85.4922 167.467 78.0376 167.467 69.6144C167.467 61.1913 162.575 53.7367 155.118 49.2563C153.491 48.2792 151.743 47.4435 149.896 46.7701V92.4587ZM155.118 55.6051V83.6237C159.628 79.9622 162.245 74.9039 162.245 69.6144C162.245 64.325 159.628 59.2666 155.118 55.6051Z" fill="#6E57E0"/>
<path fill-rule="evenodd" clip-rule="evenodd" d="M167.037 101.207C168.105 101.212 169.062 101.866 169.454 102.859L171.752 108.677C172.681 111.029 174.542 112.891 176.894 113.82L182.712 116.117C183.705 116.509 184.359 117.467 184.364 118.534C184.369 119.602 183.723 120.564 182.734 120.965L176.733 123.397C174.442 124.325 172.624 126.143 171.696 128.434L169.264 134.435C168.863 135.424 167.901 136.07 166.833 136.065C165.766 136.06 164.809 135.406 164.416 134.413L162.119 128.595C161.19 126.243 159.328 124.381 156.976 123.453L151.158 121.155C150.165 120.763 149.511 119.806 149.507 118.738C149.502 117.671 150.147 116.708 151.137 116.307L157.137 113.876C159.429 112.947 161.246 111.13 162.175 108.838L164.606 102.838C165.007 101.848 165.97 101.203 167.037 101.207ZM166.996 110.844C165.538 114.409 162.708 117.239 159.143 118.697C162.639 120.154 165.418 122.933 166.874 126.429C168.333 122.864 171.163 120.034 174.728 118.575C171.232 117.119 168.453 114.339 166.996 110.844Z" fill="#6E57E0"/>
<path fill-rule="evenodd" clip-rule="evenodd" d="M18.6126 1.08155C19.6801 1.08628 20.6372 1.74043 21.0294 2.73333L23.327 8.55129C24.2558 10.9032 26.1177 12.765 28.4695 13.6938L34.2875 15.9915C35.2804 16.3836 35.9345 17.3407 35.9393 18.4082C35.944 19.4757 35.2983 20.4385 34.309 20.8394L28.3084 23.2708C26.0169 24.1993 24.1995 26.0167 23.271 28.3082L20.8396 34.3088C20.4387 35.2982 19.4758 35.9439 18.4083 35.9391C17.3408 35.9344 16.3837 35.2802 15.9916 34.2873L13.694 28.4694C12.7652 26.1175 10.9033 24.2557 8.55144 23.3268L2.73347 21.0292C1.74058 20.6371 1.08643 19.68 1.0817 18.6125C1.07697 17.545 1.72263 16.5821 2.71202 16.1812L8.71261 13.7498C11.0041 12.8214 12.8215 11.0039 13.75 8.71247L16.1814 2.71187C16.5823 1.72248 17.5451 1.07683 18.6126 1.08155ZM18.5713 10.7178C17.1129 14.2829 14.2831 17.1127 10.7179 18.5711C14.2138 20.0277 16.9931 22.807 18.4497 26.3029C19.9081 22.7378 22.7379 19.908 26.303 18.4495C22.8072 16.993 20.0278 14.2137 18.5713 10.7178Z" fill="#6E57E0"/>
</svg>