<svg width="218" height="97" viewBox="0 0 218 97" fill="none" xmlns="http://www.w3.org/2000/svg">
<path d="M210.396 11.2556C214.595 11.2557 218 14.6717 218 18.8855C218 23.0994 214.595 26.5153 210.396 26.5154H166.94C171.14 26.5155 174.545 29.9316 174.545 34.1453C174.545 38.3591 171.14 41.775 166.94 41.7751H190.841C195.041 41.7753 198.445 45.1922 198.445 49.406C198.445 53.6197 195.04 57.0357 190.841 57.0359H179.788C174.493 57.0359 170.199 60.4518 170.199 64.6658C170.199 68.8796 176.718 72.2957 176.718 72.2957C180.918 72.2957 184.322 75.7117 184.322 79.9255C184.322 84.1394 180.918 87.5553 176.718 87.5554H49.9736C45.7737 87.5554 42.3691 84.1395 42.3691 79.9255C42.3692 75.7116 45.7737 72.2957 49.9736 72.2957H7.60449C3.40469 72.2956 8.64286e-05 68.8796 0 64.6658C0 60.4519 3.40463 57.036 7.60449 57.0359H51.0596C55.2594 57.0359 58.6638 53.6198 58.6641 49.406C58.6641 45.1921 55.2595 41.7751 51.0596 41.7751H23.9004C19.7005 41.7751 16.2959 38.3592 16.2959 34.1453C16.2961 29.9315 19.7006 26.5154 23.9004 26.5154H67.3555C63.1555 26.5154 59.751 23.0994 59.751 18.8855C59.751 14.6716 63.1556 11.2556 67.3555 11.2556H210.396ZM209.28 41.7761C213.494 41.7761 216.91 45.1921 216.91 49.406C216.91 53.6198 213.494 57.0359 209.28 57.0359C205.066 57.0359 201.651 53.6198 201.65 49.406C201.65 45.1921 205.066 41.7761 209.28 41.7761Z" fill="#F4F4F4"/>
<path d="M55.917 94.0955C55.1344 94.0955 54.5 93.461 54.5 92.6785L54.5 3.59667C54.5 2.81409 55.1344 2.17967 55.917 2.17967L78.6032 2.17967C79.1602 2.17967 79.6654 2.5059 79.8946 3.01346L84.1547 12.4467C84.3839 12.9543 84.8892 13.2805 85.4461 13.2805L160.993 13.2805C161.776 13.2805 162.41 13.9149 162.41 14.6975L162.41 92.6784C162.41 93.461 161.776 94.0955 160.993 94.0955L55.917 94.0955Z" fill="white"/>
<path d="M162.41 24.3356H54.5V4.71564C54.5 3.51166 55.476 2.53564 56.68 2.53564H78.3418C79.2074 2.53564 79.991 3.04777 80.3385 3.84057L83.9205 12.0138C84.1464 12.5291 84.6557 12.862 85.2184 12.862H160.23C161.434 12.862 162.41 13.838 162.41 15.042V24.3356Z" fill="#F4F4F4"/>
<path d="M107.697 62.9817C114.376 62.1604 121.644 64.5542 126.391 72.4114C127.014 73.4419 126.682 74.7819 125.652 75.4045C124.621 76.027 123.281 75.6967 122.659 74.6663C118.887 68.4237 113.376 66.6761 108.229 67.3088C102.896 67.9646 98.1172 71.1595 96.1509 74.6165C95.5556 75.663 94.2248 76.0291 93.1782 75.4338C92.1319 74.8386 91.7657 73.5076 92.3608 72.4612C95.1057 67.6353 101.203 63.7802 107.697 62.9817ZM92.3481 41.385C93.1602 40.5655 94.5072 40.6464 95.3569 41.5657C96.2068 42.4851 96.2373 43.8952 95.4253 44.7151L91.854 48.3206L95.6606 51.5256C96.5816 52.3011 96.6988 53.6769 95.9233 54.5979C95.1479 55.5185 93.7729 55.6368 92.8521 54.8616L88.7749 51.429L84.8052 55.4377C83.9931 56.2573 82.6462 56.1762 81.7964 55.2571C80.9465 54.3377 80.916 52.9275 81.728 52.1077L85.2983 48.5012L81.4927 45.2971C80.5717 44.5216 80.4545 43.1458 81.23 42.2249C82.0054 41.3042 83.3804 41.186 84.3013 41.9612L88.3774 45.3928L92.3481 41.385ZM130.968 41.385C131.78 40.5652 133.128 40.6463 133.978 41.5657C134.828 42.4851 134.858 43.8953 134.046 44.7151L130.474 48.3206L134.281 51.5256C135.202 52.3011 135.32 53.6769 134.544 54.5979C133.769 55.5188 132.393 55.6361 131.472 54.8606L127.396 51.428L123.426 55.4368C122.614 56.2566 121.266 56.1765 120.417 55.2571C119.567 54.3377 119.536 52.9275 120.348 52.1077L123.919 48.5012L120.114 45.2961C119.193 44.5206 119.075 43.1458 119.85 42.2249C120.625 41.304 122 41.1861 122.921 41.9612L126.998 45.3928L130.968 41.385Z" fill="#6E57E0"/>
<path fill-rule="evenodd" clip-rule="evenodd" d="M52.3198 92.6788C52.3198 94.6654 53.9302 96.2758 55.9168 96.2758L160.993 96.2758C162.979 96.2758 164.59 94.6653 164.59 92.6788L164.59 26.5158V15.0422L164.59 14.6978C164.59 13.5643 164.065 12.5533 163.246 11.894C162.463 11.1434 161.4 10.6822 160.23 10.6822H85.7495L84.6435 8.23319L82.3349 2.96569C82.2266 2.71866 82.0972 2.48525 81.9493 2.26722L81.8812 2.11657C81.2994 0.828131 80.0167 1.40187e-05 78.603 1.4082e-05L55.9168 1.50977e-05C53.9302 1.51867e-05 52.3198 1.61046 52.3198 3.59702L52.3198 92.6788ZM160.23 22.1558L160.23 15.4608L85.4459 15.4608C84.0417 15.4608 82.7669 14.6439 82.1796 13.3704C82.0832 13.2181 81.9975 13.0574 81.9237 12.889L80.66 10.0057L78.2711 4.71584L56.6798 4.71584V22.1558H160.23ZM56.6798 26.5158H160.23V91.9158L56.6798 91.9158L56.6798 26.5158ZM71.8729 9.60768C72.2978 10.0674 72.3131 10.7724 71.9071 11.1823L70.2253 12.8803L72.017 14.389C72.4775 14.7768 72.5365 15.4644 72.1488 15.9249C71.761 16.3854 71.0734 16.4443 70.6129 16.0566L68.6862 14.4342L66.8055 16.333C66.3995 16.7429 65.7259 16.7026 65.3009 16.2429C64.876 15.7832 64.8607 15.0782 65.2667 14.6683L66.9481 12.9707L65.1565 11.4622C64.696 11.0744 64.637 10.3868 65.0247 9.92632C65.4125 9.46583 66.1001 9.40685 66.5606 9.79459L68.4872 11.4168L70.3683 9.51756C70.7743 9.10764 71.4479 9.14798 71.8729 9.60768Z" fill="#6E57E0"/>
</svg>