<svg width="20" height="20" viewBox="0 0 20 20" fill="none" xmlns="http://www.w3.org/2000/svg">
<path fill-rule="evenodd" clip-rule="evenodd" d="M14.8612 17.2754C13.4223 18.2368 11.7306 18.75 10 18.75C7.67935 18.75 5.45376 17.8281 3.81281 16.1872C2.17187 14.5462 1.25 12.3206 1.25 10C1.25 8.26941 1.76318 6.57769 2.72464 5.13876C3.6861 3.69983 5.05266 2.57832 6.65152 1.91605C8.25037 1.25379 10.0097 1.08051 11.707 1.41813C13.4044 1.75575 14.9635 2.58911 16.1872 3.81282C17.4109 5.03653 18.2442 6.59563 18.5819 8.29296C18.9195 9.99029 18.7462 11.7496 18.0839 13.3485C17.4217 14.9473 16.3002 16.3139 14.8612 17.2754ZM10 12.5C9.48223 12.5 9.0625 12.9197 9.0625 13.4375C9.0625 13.9553 9.48223 14.375 10 14.375C10.5178 14.375 10.9375 13.9553 10.9375 13.4375C10.9375 12.9197 10.5178 12.5 10 12.5ZM10.625 11.25L10.625 5.625L9.375 5.625L9.375 11.25L10.625 11.25Z" fill="#B87100"/>
</svg>
