<svg width="218" height="109" viewBox="0 0 218 109" fill="none" xmlns="http://www.w3.org/2000/svg">
<path d="M48.7917 87.2664H172.539C176.639 87.2664 179.964 83.9311 179.964 79.8169C179.964 75.7026 176.639 72.3673 172.539 72.3673C172.539 72.3673 166.175 69.032 166.175 64.9177C166.175 60.8034 170.366 57.4681 175.536 57.4681H186.328C190.428 57.4681 193.753 54.1329 193.753 50.0186C193.753 45.9043 190.428 42.569 186.328 42.569H162.993C167.093 42.569 170.417 39.2337 170.417 35.1194C170.417 31.0051 167.093 27.6698 162.993 27.6698H205.42C209.521 27.6698 212.845 24.3346 212.845 20.2203C212.845 16.106 209.521 12.7707 205.42 12.7707H65.7627C61.6621 12.7707 58.3379 16.106 58.3379 20.2203C58.3379 24.3346 61.6621 27.6698 65.7627 27.6698H23.3352C19.2345 27.6698 15.9103 31.0051 15.9103 35.1194C15.9103 39.2337 19.2345 42.569 23.3352 42.569H49.8524C53.953 42.569 57.2772 45.9043 57.2772 50.0186C57.2772 54.1329 53.953 57.4681 49.8524 57.4681H7.42482C3.32421 57.4681 0 60.8034 0 64.9177C0 69.032 3.32421 72.3673 7.42482 72.3673H48.7917C44.6911 72.3673 41.3669 75.7026 41.3669 79.8169C41.3669 83.9311 44.6911 87.2664 48.7917 87.2664Z" fill="#EBEBEB"/>
<path d="M196.882 50.0187C196.882 54.1329 200.217 57.4682 204.331 57.4682C208.446 57.4682 211.781 54.1329 211.781 50.0187C211.781 45.9044 208.446 42.5691 204.331 42.5691C200.217 42.5691 196.882 45.9044 196.882 50.0187Z" fill="#EBEBEB"/>
<path d="M59.5966 68.1104L78.7526 54.8076L89.927 60.6608L121.322 37.78L168.68 69.7067L169.212 92.5876H59.5966V68.1104Z" fill="white"/>
<path fill-rule="evenodd" clip-rule="evenodd" d="M209.146 0.134186C208.914 0.0474329 208.663 0 208.401 0H190.072C188.896 0 187.943 0.952939 187.943 2.12845C187.943 3.30396 188.896 4.2569 190.072 4.2569H208.401C208.663 4.2569 208.914 4.20953 209.146 4.12289C209.954 3.82099 210.529 3.04223 210.529 2.12906C210.529 1.21581 209.954 0.436283 209.146 0.134186ZM212.756 0.134619C211.948 0.43652 211.373 1.21528 211.373 2.12845C211.373 3.0417 211.948 3.82123 212.756 4.12333C212.988 4.21008 213.239 4.25751 213.501 4.25751H215.872C217.047 4.25751 218 3.30457 218 2.12906C218 0.953552 217.047 0.000612507 215.872 0.000612507H213.501C213.239 0.000612507 212.988 0.0479796 212.756 0.134619ZM190.798 10.428C190.798 9.25254 191.751 8.2996 192.926 8.2996H201.651C202.827 8.2996 203.78 9.25254 203.78 10.428C203.78 11.6036 202.827 12.5565 201.651 12.5565H192.926C191.751 12.5565 190.798 11.6036 190.798 10.428ZM5.32112 97.0009C5.32112 95.8254 6.27406 94.8725 7.44957 94.8725H11.9542C13.1297 94.8725 14.0826 95.8254 14.0826 97.0009C14.0826 98.1764 13.1297 99.1294 11.9542 99.1294H7.44957C6.27406 99.1294 5.32112 98.1764 5.32112 97.0009ZM16.0393 97.0009C16.0393 95.8254 16.9922 94.8725 18.1677 94.8725H36.4966C37.6722 94.8725 38.6251 95.8254 38.6251 97.0009C38.6251 98.1765 37.6722 99.1294 36.4966 99.1294H18.1677C16.9922 99.1294 16.0393 98.1765 16.0393 97.0009ZM30.6343 106.367C30.6343 105.192 31.5873 104.239 32.7628 104.239H41.4875C42.663 104.239 43.6159 105.192 43.6159 106.367C43.6159 107.543 42.663 108.496 41.4875 108.496H32.7628C31.5873 108.496 30.6343 107.543 30.6343 106.367ZM173.759 100.629L165.669 94.7613H59.2143C58.3077 94.7613 57.5727 94.0264 57.5727 93.1197V16.362L50.0265 10.8889L52.7803 7.09214L60.4872 12.6818H60.5256L66.9925 17.3721H66.9541L108.132 47.2377L108.152 47.2237L112.138 50.1152L112.119 50.1292L164.276 87.9573V87.9294L168.966 91.3311V91.359L176.512 96.832L173.759 100.629ZM104.163 50.1527L62.263 19.7637V63.6598L77.6105 51.8975C78.2417 51.4138 79.119 51.4138 79.7503 51.8975L90.533 60.1614L104.163 50.1527ZM62.263 69.5691L78.6804 56.9869L87.6799 63.8841C89.3349 65.1524 91.6284 65.176 93.3091 63.9418L108.15 53.0441L159.202 90.0711H62.263V69.5691ZM164.276 66.2559V17.3721H74.9811L68.5143 12.6818H167.325C168.231 12.6818 168.966 13.4168 168.966 14.3234V85.5372L164.276 82.1354V72.0749L123.255 41.9521L116.108 47.2002L112.121 44.3088L122.214 36.8975C122.833 36.4427 123.676 36.4427 124.296 36.8975L164.276 66.2559Z" fill="#6E57E0"/>
</svg>