<svg width="208" height="160" viewBox="0 0 208 160" fill="none" xmlns="http://www.w3.org/2000/svg">
<path fill-rule="evenodd" clip-rule="evenodd" d="M47.698 127.856H167.98C171.989 127.856 175.238 124.606 175.238 120.597C175.238 116.589 171.989 113.339 167.98 113.339C167.98 113.339 161.758 110.089 161.758 106.08C161.758 102.072 165.856 98.8221 170.91 98.8221H181.46C185.469 98.8221 188.718 95.5724 188.718 91.5637C188.718 87.555 185.469 84.3053 181.46 84.3053H158.648C162.656 84.3053 165.906 81.0556 165.906 77.0469C165.906 73.0382 162.656 69.7885 158.648 69.7885H200.124C204.133 69.7885 207.383 66.5388 207.383 62.5301C207.383 58.5214 204.133 55.2717 200.124 55.2717H64.2886C60.2799 55.2717 57.0302 58.5214 57.0302 62.5301C57.0302 66.5388 60.2799 69.7885 64.2886 69.7885H22.8121C18.8034 69.7885 15.5537 73.0382 15.5537 77.0469C15.5537 81.0556 18.8034 84.3053 22.8121 84.3053H48.7349C52.7436 84.3053 55.9933 87.555 55.9933 91.5637C55.9933 95.5724 52.7436 98.8221 48.7349 98.8221H7.25839C3.24969 98.8221 0 102.072 0 106.08C0 110.089 3.24969 113.339 7.25839 113.339H47.698C43.6893 113.339 40.4396 116.589 40.4396 120.597C40.4396 124.606 43.6893 127.856 47.698 127.856ZM192.866 91.5635C192.866 95.5722 196.116 98.8219 200.124 98.8219C204.133 98.8219 207.383 95.5722 207.383 91.5635C207.383 87.5548 204.133 84.3051 200.124 84.3051C196.116 84.3051 192.866 87.5548 192.866 91.5635Z" fill="#F4F4F4"/>
<path d="M70.3447 46.8006C70.3447 46.0562 70.9482 45.4526 71.6927 45.4526H146.269C147.013 45.4526 147.617 46.0562 147.617 46.8006V142.841C147.617 143.585 147.013 144.189 146.269 144.189H71.6927C70.9482 144.189 70.3447 143.585 70.3447 142.841V46.8006Z" fill="white"/>
<path fill-rule="evenodd" clip-rule="evenodd" d="M74.4924 49.6003V140.041H143.469V49.6003H74.4924ZM71.6927 45.4526C70.9482 45.4526 70.3447 46.0562 70.3447 46.8006V142.841C70.3447 143.585 70.9482 144.189 71.6927 144.189H146.269C147.013 144.189 147.617 143.585 147.617 142.841V46.8006C147.617 46.0562 147.013 45.4526 146.269 45.4526H71.6927Z" fill="#6E57E0"/>
<path fill-rule="evenodd" clip-rule="evenodd" d="M108.002 79.5257C103.138 80.1097 98.8052 82.9527 97.035 85.9911C96.4585 86.9808 95.1888 87.3157 94.1992 86.7391C93.2095 86.1625 92.8746 84.8929 93.4512 83.9032C95.9816 79.5599 101.576 76.1198 107.508 75.4076C113.608 74.6753 120.274 76.8052 124.638 83.8558C125.24 84.8297 124.939 86.1078 123.966 86.7106C122.992 87.3133 121.714 87.0124 121.111 86.0385C117.697 80.5229 112.698 78.9619 108.002 79.5257Z" fill="#6E57E0"/>
<path fill-rule="evenodd" clip-rule="evenodd" d="M138.428 104.728H80.4756V100.58H138.428V104.728Z" fill="#6E57E0"/>
<path fill-rule="evenodd" clip-rule="evenodd" d="M138.172 114.06L80.6475 114.06L80.6475 109.912L138.172 109.912L138.172 114.06Z" fill="#6E57E0"/>
<path fill-rule="evenodd" clip-rule="evenodd" d="M138.172 123.392L80.6475 123.392L80.6475 119.244L138.172 119.244L138.172 123.392Z" fill="#6E57E0"/>
<path fill-rule="evenodd" clip-rule="evenodd" d="M106.284 132.724L80.6475 132.724L80.6475 128.577L106.284 128.577L106.284 132.724Z" fill="#6E57E0"/>
<path d="M96.1017 72.0685C96.1017 73.4911 94.9485 74.6442 93.5259 74.6442C92.1034 74.6442 90.9502 73.4911 90.9502 72.0685C90.9502 70.646 92.1034 69.4928 93.5259 69.4928C94.9485 69.4928 96.1017 70.646 96.1017 72.0685Z" fill="#6E57E0"/>
<path d="M127.01 72.0685C127.01 73.4911 125.857 74.6442 124.435 74.6442C123.012 74.6442 121.859 73.4911 121.859 72.0685C121.859 70.646 123.012 69.4928 124.435 69.4928C125.857 69.4928 127.01 70.646 127.01 72.0685Z" fill="#6E57E0"/>
<path fill-rule="evenodd" clip-rule="evenodd" d="M96.3194 141.257C97.4648 141.257 98.3933 142.185 98.3933 143.33V157.926C98.3933 159.072 97.4648 160 96.3194 160C95.1741 160 94.2456 159.072 94.2456 157.926V143.33C94.2456 142.185 95.1741 141.257 96.3194 141.257Z" fill="#6E57E0"/>
<path fill-rule="evenodd" clip-rule="evenodd" d="M122.071 141.257C123.216 141.257 124.145 142.185 124.145 143.33V157.926C124.145 159.072 123.216 160 122.071 160C120.926 160 119.997 159.072 119.997 157.926V143.33C119.997 142.185 120.926 141.257 122.071 141.257Z" fill="#6E57E0"/>
<path fill-rule="evenodd" clip-rule="evenodd" d="M145.416 76.5463C146.551 76.3969 147.593 77.1963 147.742 78.3318C148.059 80.7385 149.326 84.6946 151.771 88.0428C154.188 91.3519 157.607 93.8899 162.277 94.0358C163.422 94.0716 164.321 95.0286 164.285 96.1734C164.249 97.3182 163.292 98.2172 162.147 98.1814C155.828 97.984 151.342 94.4876 148.422 90.4889C145.53 86.5293 144.029 81.9039 143.63 78.8729C143.481 77.7374 144.28 76.6957 145.416 76.5463Z" fill="#6E57E0"/>
<path fill-rule="evenodd" clip-rule="evenodd" d="M62.8889 78.237C66.4629 80.7903 70.5793 82.7799 73.2779 83.887L71.7036 87.7243C68.8214 86.5419 64.395 84.4103 60.4779 81.6119C56.6709 78.8921 52.8422 75.1915 51.9941 70.7393L56.0685 69.9633C56.5942 72.7231 59.2048 75.6049 62.8889 78.237Z" fill="#6E57E0"/>
<path fill-rule="evenodd" clip-rule="evenodd" d="M48.0065 8.6213C49.146 8.50529 50.1637 9.33497 50.2797 10.4744L58.6704 92.8936C58.7864 94.0331 57.9568 95.0508 56.8173 95.1668C55.6779 95.2828 54.6601 94.4531 54.5441 93.3137L46.1534 10.8945C46.0374 9.75505 46.8671 8.7373 48.0065 8.6213Z" fill="#6E57E0"/>
<path d="M48.0081 9.86569C47.9346 9.12486 48.4756 8.4647 49.2164 8.39118L109.576 2.40163C110.316 2.32812 110.977 2.86909 111.05 3.60992L114.236 35.7118C114.309 36.4526 113.768 37.1128 113.027 37.1863L52.6681 43.1758C51.9273 43.2493 51.2671 42.7084 51.1936 41.9675L48.0081 9.86569Z" fill="#F4F4F4"/>
<path fill-rule="evenodd" clip-rule="evenodd" d="M45.9448 10.0705C45.7582 8.18991 47.1314 6.51413 49.012 6.32751L109.371 0.337965C111.252 0.151351 112.928 1.52459 113.114 3.40516L116.3 35.507C116.486 37.3876 115.113 39.0634 113.233 39.25L52.8733 45.2395C50.9927 45.4261 49.317 44.0529 49.1303 42.1723L45.9448 10.0705ZM50.1439 10.3832L53.1861 41.0405L112.101 35.1943L109.058 4.53702L50.1439 10.3832Z" fill="#6E57E0"/>
<path d="M66.5725 16.4824L70.3325 16.0693L71.5122 26.8052L73.7385 26.5606L74.0457 29.3558L71.8193 29.6005L72.208 33.1379L68.8685 33.5048L68.4798 29.9674L60.7371 30.8182L60.4762 28.4434L66.5725 16.4824ZM63.8437 27.6478L68.1727 27.1721L67.4442 20.5426L63.8437 27.6478Z" fill="#6E57E0"/>
<path d="M82.8785 32.3159C81.4933 32.4681 80.2504 32.2458 79.1501 31.649C78.0662 31.0505 77.1796 30.1214 76.4904 28.8619C75.8013 27.6024 75.3543 26.0409 75.1495 24.1773C74.9448 22.3138 75.042 20.6925 75.4413 19.3134C75.8405 17.9343 76.5042 16.8349 77.4322 16.0152C78.3768 15.1938 79.5417 14.7069 80.927 14.5547C82.3287 14.4007 83.5716 14.623 84.6555 15.2216C85.7558 15.8183 86.6506 16.7465 87.3398 18.006C88.0455 19.2637 88.5007 20.8243 88.7054 22.6878C88.9102 24.5514 88.8056 26.1818 88.3917 27.5792C87.9924 28.9583 87.3205 30.0586 86.376 30.8801C85.4461 31.6833 84.2803 32.1619 82.8785 32.3159ZM82.5198 29.0506C83.5257 28.9401 84.2474 28.3684 84.6847 27.3356C85.1367 26.2845 85.2657 24.8767 85.0718 23.1121C84.8743 21.3146 84.4417 19.9601 83.7741 19.0487C83.1212 18.119 82.2917 17.7095 81.2857 17.82C80.2798 17.9305 79.5581 18.5022 79.1208 19.535C78.6835 20.5678 78.5636 21.9829 78.7611 23.7805C78.9568 25.5616 79.3812 26.9169 80.0341 27.8466C80.7017 28.758 81.5303 29.1593 82.5198 29.0506Z" fill="#6E57E0"/>
<path d="M96.7932 13.1618L100.553 12.7487L101.733 23.4846L103.959 23.2399L104.266 26.0352L102.04 26.2799L102.429 29.8173L99.0892 30.1842L98.7006 26.6468L90.9579 27.4976L90.6969 25.1228L96.7932 13.1618ZM94.0644 24.3272L98.3934 23.8515L97.665 17.222L94.0644 24.3272Z" fill="#6E57E0"/>
<path fill-rule="evenodd" clip-rule="evenodd" d="M188.166 63.4227C188.401 63.5158 188.658 63.567 188.927 63.567H191.256C192.401 63.567 193.33 62.6385 193.33 61.4931C193.33 60.3478 192.401 59.4193 191.256 59.4193H188.927C188.658 59.4193 188.401 59.4705 188.165 59.5636C187.397 59.8672 186.853 60.6166 186.853 61.4931C186.853 61.4931 186.853 61.4932 186.853 61.4932C186.853 62.3697 187.397 63.1191 188.166 63.4227ZM184.677 63.4227C185.446 63.1192 185.99 62.3697 185.99 61.4932C185.99 61.4932 185.99 61.4931 185.99 61.4931C185.99 60.6166 185.446 59.8672 184.677 59.5636C184.442 59.4705 184.185 59.4193 183.916 59.4193H165.906C164.761 59.4193 163.833 60.3478 163.833 61.4932C163.833 62.6385 164.761 63.567 165.906 63.567H183.916C184.185 63.567 184.442 63.5158 184.677 63.4227ZM166.638 69.6481C166.638 68.5028 167.566 67.5743 168.712 67.5743H177.284C178.43 67.5743 179.358 68.5028 179.358 69.6481C179.358 70.7935 178.43 71.7219 177.284 71.7219H168.712C167.566 71.7219 166.638 70.7935 166.638 69.6481Z" fill="#6E57E0"/>
<path fill-rule="evenodd" clip-rule="evenodd" d="M31.563 108.166C31.563 107.021 32.4915 106.092 33.6368 106.092H51.6462C52.7916 106.092 53.7201 107.021 53.7201 108.166C53.7201 109.311 52.7916 110.24 51.6462 110.24H33.6368C32.4915 110.24 31.563 109.311 31.563 108.166Z" fill="#6E57E0"/>
<path fill-rule="evenodd" clip-rule="evenodd" d="M21.0308 108.166C21.0308 107.021 21.9592 106.092 23.1046 106.092H27.5307C28.676 106.092 29.6045 107.021 29.6045 108.166C29.6045 109.311 28.676 110.24 27.5307 110.24H23.1046C21.9592 110.24 21.0308 109.311 21.0308 108.166Z" fill="#6E57E0"/>
<path fill-rule="evenodd" clip-rule="evenodd" d="M45.9028 117.369C45.9028 116.224 46.8313 115.295 47.9767 115.295H56.5493C57.6946 115.295 58.6231 116.224 58.6231 117.369C58.6231 118.515 57.6946 119.443 56.5493 119.443H47.9767C46.8313 119.443 45.9028 118.515 45.9028 117.369Z" fill="#6E57E0"/>
</svg>