<svg width="218" height="119" viewBox="0 0 218 119" fill="none" xmlns="http://www.w3.org/2000/svg">
<path fill-rule="evenodd" clip-rule="evenodd" d="M49.9734 85.0202H176.718C180.918 85.0202 184.322 81.6041 184.322 77.3902C184.322 73.1763 180.918 69.7602 176.718 69.7602C176.718 69.7602 170.199 66.3441 170.199 62.1302C170.199 57.9163 174.492 54.5002 179.788 54.5002H190.841C195.04 54.5002 198.445 51.0841 198.445 46.8702C198.445 42.6563 195.04 39.2402 190.841 39.2402H166.94C171.14 39.2402 174.545 35.8241 174.545 31.6102C174.545 27.3963 171.14 23.9802 166.94 23.9802H210.395C214.595 23.9802 218 20.5641 218 16.3502C218 12.1363 214.595 8.72021 210.395 8.72021H67.3555C63.1555 8.72021 59.7508 12.1363 59.7508 16.3502C59.7508 20.5641 63.1555 23.9802 67.3555 23.9802H23.9003C19.7004 23.9802 16.2957 27.3963 16.2957 31.6102C16.2957 35.8241 19.7004 39.2402 23.9003 39.2402H51.0598C55.2597 39.2402 58.6645 42.6563 58.6645 46.8702C58.6645 51.0841 55.2597 54.5002 51.0598 54.5002H7.60465C3.40472 54.5002 0 57.9163 0 62.1302C0 66.3441 3.40472 69.7602 7.60465 69.7602H49.9734C45.7735 69.7602 42.3688 73.1763 42.3688 77.3902C42.3688 81.6041 45.7735 85.0202 49.9734 85.0202ZM201.65 46.8703C201.65 51.0842 205.066 54.5003 209.28 54.5003C213.494 54.5003 216.91 51.0842 216.91 46.8703C216.91 42.6564 213.494 39.2403 209.28 39.2403C205.066 39.2403 201.65 42.6564 201.65 46.8703Z" fill="#F4F4F4"/>
<path d="M159.14 46.325C159.14 71.9096 138.4 92.65 112.815 92.65C87.2306 92.65 66.4902 71.9096 66.4902 46.325C66.4902 20.7404 87.2306 0 112.815 0C138.4 0 159.14 20.7404 159.14 46.325Z" fill="white"/>
<path fill-rule="evenodd" clip-rule="evenodd" d="M112.815 88.29C135.992 88.29 154.78 69.5016 154.78 46.325C154.78 23.1484 135.992 4.36 112.815 4.36C89.6386 4.36 70.8502 23.1484 70.8502 46.325C70.8502 69.5016 89.6386 88.29 112.815 88.29ZM112.815 92.65C138.4 92.65 159.14 71.9096 159.14 46.325C159.14 20.7404 138.4 0 112.815 0C87.2306 0 66.4902 20.7404 66.4902 46.325C66.4902 71.9096 87.2306 92.65 112.815 92.65Z" fill="#6E57E0"/>
<path fill-rule="evenodd" clip-rule="evenodd" d="M157.382 93.323L149.142 85.083L152.225 82L160.465 90.24L157.382 93.323Z" fill="#6E57E0"/>
<path fill-rule="evenodd" clip-rule="evenodd" d="M156.377 101.078C153.107 97.8078 153.107 92.5065 156.377 89.2367C159.647 85.967 164.948 85.967 168.218 89.2367L183.442 104.461C186.712 107.73 186.712 113.032 183.442 116.301C180.172 119.571 174.871 119.571 171.601 116.301L156.377 101.078Z" fill="#F4F4F4"/>
<path fill-rule="evenodd" clip-rule="evenodd" d="M180.359 107.544L165.135 92.3197C163.568 90.7527 161.027 90.7527 159.46 92.3197C157.893 93.8868 157.893 96.4275 159.46 97.9945L174.684 113.218C176.251 114.785 178.792 114.785 180.359 113.218C181.926 111.651 181.926 109.111 180.359 107.544ZM156.377 89.2367C153.107 92.5065 153.107 97.8078 156.377 101.078L171.601 116.301C174.871 119.571 180.172 119.571 183.442 116.301C186.712 113.032 186.712 107.73 183.442 104.461L168.218 89.2367C164.948 85.967 159.647 85.967 156.377 89.2367Z" fill="#6E57E0"/>
<path fill-rule="evenodd" clip-rule="evenodd" d="M189.351 39.3611C189.599 39.4589 189.869 39.5127 190.152 39.5127H192.6C193.804 39.5127 194.78 38.5367 194.78 37.3327C194.78 36.1287 193.804 35.1527 192.6 35.1527H190.152C189.869 35.1527 189.599 35.2065 189.351 35.3044C188.543 35.6235 187.972 36.4113 187.972 37.3327C187.972 37.3327 187.972 37.3327 187.972 37.3327C187.972 38.2541 188.543 39.042 189.351 39.3611ZM185.684 39.3611C186.492 39.042 187.064 38.2541 187.064 37.3327C187.064 37.3327 187.064 37.3327 187.064 37.3327C187.064 36.4113 186.492 35.6235 185.684 35.3044C185.437 35.2065 185.167 35.1527 184.884 35.1527H165.952C164.748 35.1527 163.772 36.1288 163.772 37.3327C163.772 38.5367 164.748 39.5127 165.952 39.5127H184.884C185.167 39.5127 185.437 39.459 185.684 39.3611ZM166.722 45.9052C166.722 44.7012 167.698 43.7252 168.902 43.7252H177.913C179.117 43.7252 180.093 44.7012 180.093 45.9052C180.093 47.1092 179.117 48.0852 177.913 48.0852H168.902C167.698 48.0852 166.722 47.1092 166.722 45.9052Z" fill="#6E57E0"/>
<path fill-rule="evenodd" clip-rule="evenodd" d="M37.1503 66.4946C36.7509 65.9937 36.1354 65.6727 35.445 65.6727H30.7923C29.5883 65.6727 28.6123 66.6487 28.6123 67.8527C28.6123 69.0567 29.5883 70.0327 30.7923 70.0327H35.445C36.1354 70.0327 36.7509 69.7118 37.1503 69.2109C37.4474 68.8384 37.625 68.3663 37.625 67.8527C37.625 67.3392 37.4474 66.8671 37.1503 66.4946ZM40.1595 66.4946C39.8624 66.8671 39.6848 67.3392 39.6848 67.8527C39.6848 68.3663 39.8624 68.8384 40.1595 69.2109C40.5589 69.7118 41.1744 70.0327 41.8648 70.0327H60.7963C62.0003 70.0327 62.9763 69.0567 62.9763 67.8527C62.9763 66.6487 62.0003 65.6727 60.7963 65.6727H41.8648C41.1744 65.6727 40.5589 65.9937 40.1595 66.4946ZM54.7585 77.5273C54.7585 76.3234 55.7346 75.3473 56.9385 75.3473H65.95C67.154 75.3473 68.13 76.3234 68.13 77.5273C68.13 78.7313 67.154 79.7073 65.95 79.7073H56.9385C55.7346 79.7073 54.7585 78.7313 54.7585 77.5273Z" fill="#6E57E0"/>
<path fill-rule="evenodd" clip-rule="evenodd" d="M127.981 33.3388C128.833 34.1902 128.833 35.5705 127.981 36.4218L100.731 63.6718C99.8799 64.5232 98.4996 64.5232 97.6483 63.6718C96.7969 62.8205 96.7969 61.4402 97.6483 60.5888L124.898 33.3388C125.75 32.4875 127.13 32.4875 127.981 33.3388Z" fill="#6E57E0"/>
<path fill-rule="evenodd" clip-rule="evenodd" d="M97.6486 33.3388C96.7973 34.1902 96.7973 35.5705 97.6486 36.4218L124.899 63.6718C125.75 64.5232 127.13 64.5232 127.982 63.6718C128.833 62.8205 128.833 61.4402 127.982 60.5888L100.732 33.3388C99.8803 32.4875 98.5 32.4875 97.6486 33.3388Z" fill="#6E57E0"/>
</svg>