<svg width="180" height="100" viewBox="0 0 180 100" fill="none" xmlns="http://www.w3.org/2000/svg">
<path fill-rule="evenodd" clip-rule="evenodd" d="M33.6641 72.7065C33.6641 75.8986 36.2551 78.4863 39.4514 78.4863H160.158C163.354 78.4863 165.945 75.8986 165.945 72.7065C165.945 69.5144 163.354 66.9267 160.158 66.9267H155.197C152.001 66.9267 149.41 64.339 149.41 61.1468C149.41 57.9547 152.001 55.367 155.197 55.367H170.906C174.102 55.367 176.693 52.7793 176.693 49.5872C176.693 46.3951 174.102 43.8074 170.906 43.8074H152.717C155.913 43.8074 158.504 41.2197 158.504 38.0276C158.504 34.8355 155.913 32.2477 152.717 32.2477H99.8047C103.001 32.2477 105.592 29.66 105.592 26.4679C105.592 23.2758 103.001 20.6881 99.8047 20.6881H52.6795C49.4832 20.6881 46.8922 23.2758 46.8922 26.4679C46.8922 29.66 49.4832 32.2477 52.6795 32.2477H19.6092C16.413 32.2477 13.8219 34.8355 13.8219 38.0276C13.8219 41.2197 16.413 43.8074 19.6092 43.8074H40.2781C43.4744 43.8074 46.0654 46.3951 46.0654 49.5872C46.0654 52.7793 43.4744 55.367 40.2781 55.367H7.20783C4.0116 55.367 1.42053 57.9547 1.42053 61.1468C1.42053 64.339 4.0116 66.9267 7.20783 66.9267H39.4514C36.2551 66.9267 33.6641 69.5144 33.6641 72.7065ZM174.213 78.4862C177.409 78.4862 180 75.8985 180 72.7064C180 69.5143 177.409 66.9266 174.213 66.9266C171.016 66.9266 168.425 69.5143 168.425 72.7064C168.425 75.8985 171.016 78.4862 174.213 78.4862Z" fill="#F4F4F4"/>
<path d="M123.533 48.3486C120.556 31.1743 105.757 25.7798 98.73 25.2294V77.6606C120.226 74.0276 124.222 56.6055 123.533 48.3486Z" fill="white"/>
<path d="M86.2254 92.3166V7.47708L77.5444 3.14221H70.7237L62.3528 5.92891L56.7721 12.7408L53.0517 20.4817L44.6808 24.5069L40.0303 29.1514V40.6078L35.9999 48.9679V58.5666L40.0303 65.6881L38.1701 70.3326L40.0303 78.6927L48.0912 83.6468H54.9119L63.5929 95.7225L77.5444 98.8189L86.2254 92.3166Z" fill="white"/>
<path d="M104.517 2.21339L98.0066 0.974854V24.8166C96.3531 24.8166 95.3403 25.1882 104.517 26.6744C115.989 28.5322 123.429 39.2841 123.429 51.1354C123.429 70.0231 106.377 75.5965 104.517 75.5965L98.0066 78.0735V98.1997H104.517V92.3166L111.958 90.4588L114.128 95.1033L123.429 92.3166L125.6 87.6721L123.429 82.718L129.94 78.0735L134.281 80.8602L136.761 78.0735L141.721 70.0231L140.171 69.0942L136.761 64.7593L138.621 57.9474H146.992V44.6331H138.621L136.761 36.273L142.651 31.6285L136.761 22.0299L128.08 24.8166L123.429 20.1721L128.08 11.5024L125.6 10.2638L116.609 5.92898L111.958 13.3602H109.478L104.517 10.2638V2.21339Z" fill="white"/>
<path fill-rule="evenodd" clip-rule="evenodd" d="M97.9672 24.0498C113.041 24.0942 125.26 36.269 125.304 51.3725L125.304 51.3774C125.304 66.4039 113.08 78.6188 97.9671 78.6632L97.9574 75.3605C111.256 75.3214 121.996 64.5751 121.997 51.3796C121.957 38.0944 111.212 27.3916 97.9574 27.3525L97.9672 24.0498Z" fill="#FF008C"/>
<path fill-rule="evenodd" clip-rule="evenodd" d="M99.8046 3.34865V96.6514H103.112V91.1448L104.469 90.8983C105.979 90.6241 109.299 89.8575 111.053 88.9817L112.488 88.2653L115.35 93.5739L124.357 88.6109L121.193 83.4756L122.334 82.5638C124.306 80.9886 126.699 78.598 128.277 76.629L129.208 75.4664L134.845 79.0857L140.058 70.818L133.476 67.1205L134.351 65.6642C134.858 64.819 135.431 63.3326 135.882 61.7318C136.335 60.1224 136.595 58.6459 136.595 57.8441V56.1927H144.449V46.2845H136.893L136.627 44.9569C136.221 42.9295 135.428 39.8024 134.29 37.5276L133.594 36.1382L141.371 31.6413L136.452 23.0435L129.357 27.7672L128.399 26.8099C126.847 25.2607 123.581 22.0871 122.375 21.1835L121.201 20.3038L125.663 12.6057L117.325 7.67083L112.486 15.7253L111.178 15.203C109.856 14.6747 106.676 13.6698 104.352 13.6698H102.698V3.34865H99.8046ZM96.4976 2.77067C96.4976 1.26582 97.7191 0.0458984 99.2259 0.0458984H103.277C104.784 0.0458984 106.005 1.26582 106.005 2.77067V10.4729C107.834 10.691 109.719 11.2075 111.074 11.6558L114.785 5.47866C115.558 4.19324 117.224 3.77223 118.516 4.53645L127.842 10.056C129.129 10.8177 129.562 12.4723 128.812 13.7653L125.496 19.4858C126.785 20.6208 128.515 22.2845 129.773 23.5207L135.133 19.952C136.449 19.0763 138.231 19.4966 139.016 20.8673L144.528 30.5017C145.273 31.8031 144.825 33.4607 143.526 34.2117L137.888 37.4715C138.645 39.3226 139.206 41.3504 139.583 42.9817H145.028C146.535 42.9817 147.756 44.2016 147.756 45.7065V56.7707C147.756 58.2755 146.535 59.4955 145.028 59.4955H139.759C139.611 60.4799 139.36 61.5784 139.065 62.6261C138.759 63.7138 138.376 64.8482 137.948 65.8436L142.209 68.2371C143.568 69.0009 144.011 70.7455 143.18 72.0638L137.332 81.3391C136.524 82.6211 134.824 82.9986 133.548 82.1794L129.898 79.8361C128.593 81.327 127.016 82.9008 125.524 84.2024L127.492 87.3961C128.308 88.721 127.85 90.4584 126.486 91.2099L116.436 96.7478C115.107 97.48 113.435 96.9884 112.716 95.6539L111.05 92.5643C109.527 93.125 107.753 93.578 106.419 93.8722V97.2294C106.419 98.7343 105.197 99.9542 103.69 99.9542H99.2259C97.7191 99.9542 96.4976 98.7343 96.4976 97.2294V2.77067Z" fill="#FF008C"/>
<path fill-rule="evenodd" clip-rule="evenodd" d="M66.635 2.0438C73.5268 0.0158851 81.9275 1.11672 86.9189 5.51662C87.5218 6.04805 87.8166 6.7938 87.8166 7.52449V18.6241H84.5096V7.80329C80.5411 4.49169 73.5608 3.449 67.5696 5.21191C64.5622 6.09684 61.9444 7.65368 60.1572 9.83256C58.4131 11.9589 57.3834 14.767 57.6264 18.3758C58.2976 21.1579 61.0356 27.0614 68.2198 28.1376L67.7292 31.4038C58.4812 30.0184 55.1308 22.3157 54.3741 18.9901L54.3468 18.8702L54.3376 18.7476C54.0009 14.2648 55.2766 10.571 57.5989 7.73963C59.8983 4.93632 63.1445 3.07089 66.635 2.0438Z" fill="#FF008C"/>
<path fill-rule="evenodd" clip-rule="evenodd" d="M68.1808 19.7682C66.6655 17.6103 66.237 15.2126 66.3229 13.583L69.6253 13.7566C69.5734 14.7417 69.8477 16.3899 70.8884 17.8718C71.8874 19.2945 73.6695 20.6769 76.8691 21.1149C77.8313 21.234 79.4555 21.2716 81.0767 20.9823C82.7404 20.6853 84.1242 20.0944 84.9184 19.1879L87.4072 21.3628C85.8865 23.0984 83.6188 23.8836 81.6585 24.2335C79.6608 24.59 77.6936 24.5463 76.45 24.391L76.4408 24.3899L76.4316 24.3886C72.3617 23.8343 69.7369 21.9841 68.1808 19.7682Z" fill="#FF008C"/>
<path fill-rule="evenodd" clip-rule="evenodd" d="M62.6806 27.7364C61.1658 32.6529 56.7834 35.6642 54.7657 36.5942L53.3798 33.5954C54.9447 32.8741 58.3889 30.4358 59.5198 26.7651L62.6806 27.7364Z" fill="#FF008C"/>
<path fill-rule="evenodd" clip-rule="evenodd" d="M87.8162 18.6239V90.3489C87.8162 90.536 87.7965 90.7291 87.7553 90.919C87.1623 93.6489 85.8191 95.6646 83.984 97.05C82.1798 98.4121 80.0026 99.0895 77.8252 99.3591C73.5342 99.8906 68.8573 98.8874 65.8304 97.8172C62.3081 96.873 59.6776 94.7527 57.8372 92.5485C56.0177 90.3695 54.9058 88.0339 54.4204 86.452C52.4756 81.3153 55.2789 77.1066 56.9468 75.6075L56.9879 75.5706L62.8332 70.9837L62.8481 70.9726C64.9541 69.3951 65.168 67.3167 65.0931 66.7187L65.0803 66.6166V66.5138C65.0803 63.3788 63.3701 60.3431 62.535 59.2708L65.1454 57.2431C66.2312 58.6373 68.3549 62.3264 68.387 66.4201C68.5486 68.0592 67.9478 71.2719 64.8479 73.603L59.122 78.0962C58.0354 79.0997 56.2256 81.9395 57.5293 85.3247L57.5518 85.3831L57.5698 85.443C57.9212 86.6128 58.8298 88.5804 60.377 90.4333C61.9142 92.2743 64.0152 93.9251 66.7414 94.6416L66.8099 94.6596L66.8767 94.6835C69.617 95.6609 73.7857 96.5314 77.4182 96.0815C79.2181 95.8586 80.7863 95.3239 81.9898 94.4153C83.1499 93.5395 84.0695 92.2445 84.5092 90.2833V18.6239H87.8162Z" fill="#FF008C"/>
<path fill-rule="evenodd" clip-rule="evenodd" d="M65.1988 46.9098C67.434 41.3292 71.8447 38.8925 76.2418 38.8925C80.8485 38.8924 83.6773 40.1347 85.8038 41.0685C86.1505 41.2207 86.4785 41.3648 86.7925 41.4939L85.5333 44.5479C85.1673 44.3974 84.805 44.2392 84.438 44.0791C82.3538 43.1693 80.1221 42.1952 76.2418 42.1952C73.1981 42.1952 70.0027 43.8087 68.2693 48.1364C67.4082 50.2865 66.3642 52.1023 64.9661 53.3875C63.5166 54.7199 61.7675 55.4062 59.7067 55.4062C57.4911 55.4062 55.9287 54.0733 54.6374 52.442C53.6619 51.2096 52.6498 49.5524 51.5067 47.6806C51.166 47.1227 50.8136 46.5457 50.4471 45.9552L53.2579 44.2151C53.6754 44.8877 54.0596 45.5164 54.4181 46.103C55.5287 47.9203 56.3921 49.3331 57.2317 50.3938C58.3174 51.7655 59.0285 52.1035 59.7067 52.1035C60.9529 52.1035 61.8985 51.7186 62.7265 50.9574C63.6059 50.149 64.4222 48.8489 65.1988 46.9098Z" fill="#FF008C"/>
<path d="M49.4589 47.3841C48.1864 47.3841 47.0081 46.7714 46.0655 45.6402L48.422 43.755C49.0347 44.5091 49.506 44.4148 49.6474 44.3677C50.2601 44.2734 50.8728 43.6136 51.1085 42.8595C51.2499 42.341 51.3441 41.5869 50.6843 40.9271L52.8523 38.8533C54.172 40.2201 54.549 42.0111 53.9834 43.8021C53.4179 45.6403 51.9097 47.0071 50.213 47.337C49.9302 47.337 49.6946 47.3841 49.4589 47.3841Z" fill="#F4F4F4"/>
<path fill-rule="evenodd" clip-rule="evenodd" d="M52.8637 38.2705L53.1496 38.5667C54.5789 40.0471 54.9862 41.9969 54.3779 43.9249C53.7703 45.8977 52.148 47.3813 50.2918 47.7422L50.2526 47.7498H50.2128C50.0931 47.7498 49.9811 47.7597 49.8573 47.7715C49.8501 47.7722 49.8429 47.7729 49.8355 47.7736C49.7222 47.7845 49.5916 47.797 49.4587 47.797C48.0411 47.797 46.7532 47.1112 45.7475 45.9043L45.4781 45.581L48.4839 43.1763L48.7428 43.4948C49.0115 43.8255 49.2177 43.932 49.3322 43.967C49.4424 44.0007 49.5053 43.9797 49.5163 43.9761L49.5496 43.965L49.5842 43.9597C49.7724 43.9307 50.0009 43.8051 50.2202 43.5758C50.4342 43.3521 50.6122 43.0568 50.7114 42.7435C50.838 42.2754 50.8897 41.7169 50.3916 41.2188L50.0933 40.9205L52.8637 38.2705ZM51.2487 40.9586C51.7605 41.6929 51.6417 42.4742 51.5071 42.968L51.5051 42.9752L51.5028 42.9825C51.3659 43.4207 51.1209 43.8296 50.818 44.1462C50.5265 44.451 50.1543 44.6975 49.7427 44.7703C49.606 44.8101 49.3777 44.8444 49.0903 44.7566C48.8649 44.6877 48.6256 44.5506 48.3795 44.3178L46.6645 45.6898C47.4863 46.5384 48.4489 46.9713 49.4587 46.9713C49.551 46.9713 49.6458 46.9622 49.7713 46.9503L49.7788 46.9496C49.8916 46.9388 50.0241 46.9265 50.1704 46.9244C51.6925 46.6131 53.0683 45.3701 53.5881 43.6808L53.589 43.6779C54.0693 42.1567 53.8141 40.654 52.8283 39.4477L51.2487 40.9586Z" fill="#FF008C"/>
<path fill-rule="evenodd" clip-rule="evenodd" d="M54.4973 43.3065C54.2798 44.6514 53.5518 45.7843 52.741 46.3627C51.201 47.4612 49.6436 47.667 48.3054 47.3475C47.0434 47.0462 46.0862 46.3069 45.5491 45.6632L48.0896 43.5489C48.2415 43.7309 48.607 44.0237 49.0743 44.1352C49.4653 44.2286 50.0436 44.2279 50.8184 43.6754C50.8146 43.6781 50.8151 43.6776 50.8193 43.6735C50.8356 43.6576 50.9089 43.586 50.997 43.4376C51.0992 43.2655 51.1905 43.0403 51.2326 42.7798C51.3087 42.3097 51.2476 41.5936 50.5096 40.7091L53.0501 38.5947C54.379 40.1873 54.7313 41.8598 54.4973 43.3065Z" fill="#FF008C"/>
<path fill-rule="evenodd" clip-rule="evenodd" d="M81.6539 60.4039C83.6888 60.4122 85.512 61.126 86.6165 61.8048L84.8833 64.6176C84.1964 64.1955 82.9606 63.712 81.6403 63.7066C80.3906 63.7015 79.0659 64.1154 77.9353 65.4955L77.8831 65.5592L77.8247 65.6175C77.0789 66.3623 75.4929 68.9916 76.5603 72.5609C77.5016 74.8348 78.4293 78.4462 77.8142 81.6368C77.4942 83.2966 76.7359 84.9348 75.2541 86.1446C73.7736 87.3532 71.7579 87.9817 69.2147 87.9817V84.679C71.2187 84.679 72.4239 84.1893 73.161 83.5875C73.8968 82.9868 74.3529 82.1221 74.5668 81.0124C75.0123 78.7018 74.3159 75.7555 73.4772 73.758L73.4456 73.6828L73.4216 73.605C71.9083 68.6929 73.9741 64.8414 75.4258 63.3435C77.2634 61.1375 79.5673 60.3953 81.6539 60.4039Z" fill="#FF008C"/>
<path fill-rule="evenodd" clip-rule="evenodd" d="M42.1658 24.0535C46.1326 20.1476 52.222 18.0516 56.8977 19.5262L55.9019 22.6756C52.7234 21.6732 47.8583 23.0864 44.4876 26.4054C42.8466 28.0212 41.6577 30.0053 41.2224 32.2179C40.791 34.4098 41.0755 36.9405 42.5638 39.7275L43.2692 41.0483L42.022 41.8787C40.0003 43.2247 37.8362 46.4795 37.3191 50.47C36.8612 54.0034 37.7061 58.0617 41.1335 61.7437C41.6112 61.4109 42.1417 61.129 42.6915 60.8968C43.9061 60.3836 45.3595 60.0494 46.9229 59.9625C50.0542 59.7883 53.7581 60.6009 57.008 63.1511L54.9648 65.7481C52.4274 63.757 49.5431 63.1246 47.1068 63.2601C45.8865 63.328 44.8112 63.5873 43.9799 63.9385C43.1181 64.3026 42.6495 64.7079 42.4675 64.9723C40.4242 67.9404 39.5949 71.9912 40.9752 75.2652C42.2963 78.3989 45.9064 81.3967 54 81.791L53.8389 85.0899C44.9839 84.6585 39.9131 81.2572 37.9273 76.5468C36.2026 72.4558 37.0136 67.8294 38.9989 64.2952C34.637 59.7909 33.448 54.6102 34.0394 50.0461C34.5765 45.9009 36.5937 42.211 39.0354 40.0271C37.7345 37.0668 37.4608 34.2061 37.9774 31.581C38.5625 28.6072 40.1382 26.05 42.1658 24.0535Z" fill="#FF008C"/>
<path fill-rule="evenodd" clip-rule="evenodd" d="M171.262 41.4547C171.074 41.3805 170.869 41.3397 170.654 41.3397H156.295C155.382 41.3397 154.642 42.0791 154.642 42.9911C154.642 43.9031 155.382 44.6425 156.295 44.6425H170.654C170.869 44.6425 171.074 44.6017 171.262 44.5276C171.874 44.2859 172.308 43.6892 172.308 42.9913C172.308 42.9912 172.308 42.9912 172.308 42.9911C172.308 42.2932 171.874 41.6964 171.262 41.4547ZM174.043 41.4548C173.43 41.6965 172.997 42.2932 172.996 42.9911C172.996 42.9912 172.996 42.9912 172.996 42.9913C172.996 43.6892 173.43 44.286 174.043 44.5277C174.231 44.6019 174.436 44.6427 174.65 44.6427H176.507C177.42 44.6427 178.16 43.9033 178.16 42.9913C178.16 42.0793 177.42 41.3399 176.507 41.3399H174.65C174.436 41.3399 174.231 41.3807 174.043 41.4548ZM156.878 49.4849C156.878 48.5729 157.619 47.8335 158.532 47.8335H165.367C166.28 47.8335 167.021 48.5729 167.021 49.4849C167.021 50.3969 166.28 51.1362 165.367 51.1362H158.532C157.619 51.1362 156.878 50.3969 156.878 49.4849Z" fill="#FF008C"/>
<path fill-rule="evenodd" clip-rule="evenodd" d="M8.39758 62.7981C8.39758 61.8861 9.13789 61.1467 10.0511 61.1467H24.4105C25.3237 61.1467 26.064 61.8861 26.064 62.7981C26.064 63.7101 25.3237 64.4495 24.4105 64.4495H10.0511C9.13789 64.4495 8.39758 63.7101 8.39758 62.7981Z" fill="#FF008C"/>
<path fill-rule="evenodd" clip-rule="evenodd" d="M0 62.7981C0 61.8861 0.740303 61.1467 1.65351 61.1467H5.18253C6.09574 61.1467 6.83605 61.8861 6.83605 62.7981C6.83605 63.7101 6.09574 64.4495 5.18253 64.4495H1.65351C0.740303 64.4495 0 63.7101 0 62.7981Z" fill="#FF008C"/>
<path fill-rule="evenodd" clip-rule="evenodd" d="M19.8312 70.1267C19.8312 69.2147 20.5715 68.4753 21.4848 68.4753H28.3199C29.2331 68.4753 29.9734 69.2147 29.9734 70.1267C29.9734 71.0387 29.2331 71.7781 28.3199 71.7781H21.4848C20.5715 71.7781 19.8312 71.0387 19.8312 70.1267Z" fill="#FF008C"/>
</svg>
