<svg width="218" height="133" viewBox="0 0 218 133" fill="none" xmlns="http://www.w3.org/2000/svg">
<path d="M210.396 30.52C214.595 30.5201 218 33.9361 218 38.1499C218 42.3638 214.595 45.7797 210.396 45.7798H166.94C171.14 45.7799 174.545 49.196 174.545 53.4097C174.545 57.6235 171.14 61.0394 166.94 61.0395H190.841C195.041 61.0397 198.445 64.4566 198.445 68.6704C198.445 72.8841 195.04 76.3001 190.841 76.3003H179.788C174.493 76.3003 170.199 79.7162 170.199 83.9302C170.199 88.144 176.718 91.5601 176.718 91.5601C180.918 91.5601 184.322 94.9761 184.322 99.1899C184.322 103.404 180.918 106.82 176.718 106.82H49.9736C45.7737 106.82 42.3691 103.404 42.3691 99.1899C42.3692 94.976 45.7737 91.5601 49.9736 91.5601H7.60449C3.40468 91.56 8.32823e-05 88.144 0 83.9302C0 79.7163 3.40463 76.3004 7.60449 76.3003H51.0596C55.2594 76.3003 58.6639 72.8842 58.6641 68.6704C58.6641 64.4565 55.2595 61.0395 51.0596 61.0395H23.9004C19.7005 61.0395 16.2959 57.6236 16.2959 53.4097C16.2961 49.1959 19.7006 45.7798 23.9004 45.7798H67.3555C63.1555 45.7798 59.751 42.3638 59.751 38.1499C59.751 33.936 63.1556 30.52 67.3555 30.52H210.396ZM209.28 61.0405C213.494 61.0405 216.91 64.4565 216.91 68.6704C216.91 72.8842 213.494 76.3003 209.28 76.3003C205.066 76.3003 201.651 72.8842 201.65 68.6704C201.65 64.4565 205.066 61.0405 209.28 61.0405Z" fill="#EBEBEB"/>
<ellipse cx="113.905" cy="77.935" rx="51.775" ry="51.775" fill="white"/>
<path fill-rule="evenodd" clip-rule="evenodd" d="M39.5462 1.37928C39.2187 0.550215 38.4196 0.00399798 37.5282 5.22093e-05C36.6368 -0.00389367 35.8329 0.535227 35.4981 1.36136L33.4679 6.37186C32.6926 8.28524 31.1751 9.80279 29.2617 10.5781L24.2512 12.6083C23.425 12.943 22.8859 13.747 22.8899 14.6384C22.8938 15.5298 23.44 16.3289 24.2691 16.6563L29.1271 18.5749C31.0909 19.3504 32.6456 20.9051 33.4211 22.8689L35.3396 27.7269C35.6671 28.556 36.4662 29.1022 37.3576 29.1061C38.249 29.1101 39.053 28.5709 39.3877 27.7448L41.4179 22.7343C42.1932 20.8209 43.7108 19.3034 45.6241 18.5281L50.6346 16.4979C51.4608 16.1631 51.9999 15.3592 51.9959 14.4678C51.992 13.5764 51.4458 12.7773 50.6167 12.4498L45.7587 10.5313C43.7949 9.75575 42.2402 8.2011 41.4647 6.23728L39.5462 1.37928ZM30.9361 14.6039C33.913 13.3861 36.2759 11.0232 37.4937 8.04631C38.7099 10.9654 41.0306 13.2861 43.9497 14.5023C40.9728 15.7201 38.6099 18.083 37.3921 21.0599C36.1759 18.1408 33.8552 15.8201 30.9361 14.6039ZM98.6447 11.9901C98.6447 10.4851 99.8647 9.26511 101.37 9.26511H126.44C127.945 9.26511 129.165 10.4851 129.165 11.9901C129.165 13.4951 127.945 14.7151 126.44 14.7151H116.63V23.5021C126.249 23.9761 135.217 26.9455 142.894 31.7764L150.47 22.2806C151.408 21.1042 153.123 20.9114 154.299 21.85C155.476 22.7886 155.668 24.5031 154.73 25.6796L147.364 34.912C160.164 44.8807 168.405 60.4454 168.405 77.9351C168.405 108.035 144.004 132.435 113.905 132.435C90.7218 132.435 70.9196 117.96 63.0431 97.5551H43.5997C42.0947 97.5551 40.8747 96.3351 40.8747 94.8301C40.8747 93.3251 42.0947 92.1051 43.5997 92.1051H61.265C60.2779 88.4291 59.6656 84.5996 59.4717 80.6601H26.1597C24.6547 80.6601 23.4347 79.4401 23.4347 77.9351C23.4347 76.4301 24.6547 75.2101 26.1597 75.2101H59.4717C59.6561 71.4649 60.2187 67.8191 61.122 64.3101H43.5997C42.0947 64.3101 40.8747 63.0901 40.8747 61.5851C40.8747 60.0801 42.0947 58.8601 43.5997 58.8601H62.8366C66.4098 49.2984 72.591 41.0099 80.5111 34.861L73.5749 25.6154C72.6718 24.4115 72.9156 22.7035 74.1194 21.8003C75.3233 20.8972 77.0313 21.141 77.9345 22.3448L84.9799 31.7361C92.6426 26.929 101.587 23.9748 111.18 23.5021V14.7151H101.37C99.8647 14.7151 98.6447 13.4951 98.6447 11.9901ZM66.7715 64.3101H84.3408C85.8458 64.3101 87.0658 63.0901 87.0658 61.5851C87.0658 60.0801 85.8458 58.8601 84.3408 58.8601H68.7014C72.3301 50.2711 78.3361 42.9302 85.8986 37.6609C93.8386 32.1287 103.489 28.8851 113.905 28.8851C124.321 28.8851 133.971 32.1287 141.911 37.6609C154.636 46.5277 162.955 61.2602 162.955 77.9351C162.955 105.025 140.994 126.985 113.905 126.985C93.7911 126.985 76.5051 114.879 68.9361 97.5551H84.3408C85.8458 97.5551 87.0658 96.3351 87.0658 94.8301C87.0658 93.3251 85.8458 92.1051 84.3408 92.1051H66.9326C65.8319 88.4516 65.1459 84.6183 64.9291 80.6601H75.7547C77.2597 80.6601 78.4797 79.4401 78.4797 77.9351C78.4797 76.4301 77.2597 75.2101 75.7547 75.2101H64.9291C65.135 71.4483 65.7648 67.7993 66.7715 64.3101ZM113.905 46.3251C115.41 46.3251 116.63 47.5451 116.63 49.0501V77.3901H143.335C144.84 77.3901 146.06 78.6101 146.06 80.1151C146.06 81.6201 144.84 82.8401 143.335 82.8401H113.905C112.4 82.8401 111.18 81.6201 111.18 80.1151V49.0501C111.18 47.5451 112.4 46.3251 113.905 46.3251ZM197.434 103.225C198.325 103.229 199.124 103.776 199.452 104.605L201.37 109.463C202.146 111.426 203.7 112.981 205.664 113.757L210.522 115.675C211.351 116.003 211.897 116.802 211.901 117.693C211.905 118.585 211.366 119.388 210.54 119.723L205.529 121.753C203.616 122.529 202.099 124.046 201.323 125.96L199.293 130.97C198.958 131.796 198.154 132.335 197.263 132.331C196.372 132.328 195.572 131.781 195.245 130.952L193.326 126.094C192.551 124.13 190.996 122.576 189.032 121.8L184.174 119.882C183.345 119.554 182.799 118.755 182.795 117.864C182.791 116.972 183.33 116.168 184.157 115.834L189.167 113.803C191.08 113.028 192.598 111.511 193.373 109.597L195.403 104.587C195.738 103.761 196.542 103.221 197.434 103.225ZM197.399 111.272C196.181 114.249 193.818 116.611 190.841 117.829C193.761 119.045 196.081 121.366 197.298 124.285C198.515 121.308 200.878 118.945 203.855 117.728C200.936 116.511 198.615 114.191 197.399 111.272Z" fill="#6E57E0"/>
</svg>