<svg width="180" height="94" viewBox="0 0 180 94" fill="none" xmlns="http://www.w3.org/2000/svg">
<path fill-rule="evenodd" clip-rule="evenodd" d="M49.5808 84H139.042C143.209 84 146.587 80.866 146.587 77C146.587 73.134 143.209 70 139.042 70C139.042 70 132.575 66.866 132.575 63C132.575 59.134 136.834 56 142.088 56H153.054C157.221 56 160.599 52.866 160.599 49C160.599 45.134 157.221 42 153.054 42H129.341C133.508 42 136.886 38.866 136.886 35C136.886 31.134 133.508 28 129.341 28H172.455C176.622 28 180 24.866 180 21C180 17.134 176.622 14 172.455 14H66.8263C62.6594 14 59.2814 17.134 59.2814 21C59.2814 24.866 62.6594 28 66.8263 28H23.7126C19.5456 28 16.1677 31.134 16.1677 35C16.1677 38.866 19.5456 42 23.7126 42H50.6587C54.8256 42 58.2036 45.134 58.2036 49C58.2036 52.866 54.8256 56 50.6587 56H7.54491C3.37797 56 0 59.134 0 63C0 66.866 3.37797 70 7.54491 70H49.5808C45.4139 70 42.0359 73.134 42.0359 77C42.0359 80.866 45.4139 84 49.5808 84ZM164.91 49C164.91 52.866 168.288 56 172.455 56C176.622 56 180 52.866 180 49C180 45.134 176.622 42 172.455 42C168.288 42 164.91 45.134 164.91 49Z" fill="#F4F4F4"/>
<circle cx="90" cy="47" r="45" fill="white"/>
<path d="M126.374 73.5C131.798 66.0665 135 56.9072 135 47C135 22.1472 114.853 2 90 2C65.1472 2 45 22.1472 45 47C45 71.8528 65.1472 92 90 92C97.4382 92 104.455 90.1953 110.636 87M122.136 78.5C120.254 80.4207 118.2 82.1733 116 83.7332" stroke="#6E57E0" stroke-width="4" stroke-linecap="round"/>
<path d="M31.5 77V80.75" stroke="#6E57E0" stroke-width="4" stroke-linecap="round" stroke-linejoin="round"/>
<path d="M31.5 88.25V92" stroke="#6E57E0" stroke-width="4" stroke-linecap="round" stroke-linejoin="round"/>
<path d="M24 84.5H27.75" stroke="#6E57E0" stroke-width="4" stroke-linecap="round" stroke-linejoin="round"/>
<path d="M35.25 84.5H39" stroke="#6E57E0" stroke-width="4" stroke-linecap="round" stroke-linejoin="round"/>
<path d="M148.5 2V5.75" stroke="#6E57E0" stroke-width="4" stroke-linecap="round" stroke-linejoin="round"/>
<path d="M148.5 13.25V17" stroke="#6E57E0" stroke-width="4" stroke-linecap="round" stroke-linejoin="round"/>
<path d="M141 9.5H144.75" stroke="#6E57E0" stroke-width="4" stroke-linecap="round" stroke-linejoin="round"/>
<path d="M152.25 9.5H156" stroke="#6E57E0" stroke-width="4" stroke-linecap="round" stroke-linejoin="round"/>
<path d="M90 64.2051L90 42.5789" stroke="#6E57E0" stroke-width="6" stroke-linecap="round"/>
<ellipse cx="90" cy="34.3828" rx="3" ry="3" transform="rotate(-180 90 34.3828)" fill="#6E57E0"/>
<path fill-rule="evenodd" clip-rule="evenodd" d="M79.3998 13.2832C77.4462 14.0739 75.5317 15.0182 73.6755 16.1158C70.791 17.8213 68.0471 19.8969 65.5158 22.3413C64.4782 23.3433 63.5013 24.3832 62.5853 25.456M59.5688 29.327C58.9039 30.3317 58.292 31.3617 57.7332 32.4129C57.3204 33.1894 56.9366 33.9774 56.5818 34.7754" fill="white"/>
<path d="M80.1502 15.137C81.174 14.7226 81.6681 13.5566 81.2537 12.5328C80.8392 11.5089 79.6733 11.0148 78.6494 11.4293L80.1502 15.137ZM73.6755 16.1158L72.6575 14.3942L73.6755 16.1158ZM65.5158 22.3413L64.1265 20.9026L65.5158 22.3413ZM61.0643 24.1573C60.3471 24.9974 60.4466 26.2598 61.2866 26.977C62.1267 27.6942 63.3891 27.5947 64.1063 26.7547L61.0643 24.1573ZM61.2366 30.4307C61.8462 29.5096 61.5936 28.2687 60.6725 27.6591C59.7513 27.0495 58.5105 27.3021 57.9009 28.2233L61.2366 30.4307ZM57.7332 32.4129L59.4991 33.3517L57.7332 32.4129ZM54.7543 33.9628C54.3056 34.9721 54.76 36.1541 55.7693 36.6029C56.7786 37.0516 57.9606 36.5972 58.4093 35.5879L54.7543 33.9628ZM78.6494 11.4293C76.6037 12.2573 74.5998 13.2458 72.6575 14.3942L74.6934 17.8373C76.4636 16.7906 78.2887 15.8905 80.1502 15.137L78.6494 11.4293ZM72.6575 14.3942C69.6392 16.1789 66.7706 18.3493 64.1265 20.9026L66.9051 23.78C69.3236 21.4445 71.9427 19.4637 74.6934 17.8373L72.6575 14.3942ZM64.1265 20.9026C63.0427 21.9492 62.0219 23.0358 61.0643 24.1573L64.1063 26.7547C64.9807 25.7306 65.9137 24.7374 66.9051 23.78L64.1265 20.9026ZM57.9009 28.2233C57.2005 29.2817 56.5559 30.3667 55.9672 31.4742L59.4991 33.3517C60.0281 32.3567 60.6073 31.3818 61.2366 30.4307L57.9009 28.2233ZM55.9672 31.4742C55.5324 32.2921 55.1281 33.1222 54.7543 33.9628L58.4093 35.5879C58.7452 34.8325 59.1085 34.0866 59.4991 33.3517L55.9672 31.4742Z" fill="#6E57E0"/>
</svg>
