<svg width="52" height="52" viewBox="0 0 52 52" fill="none" xmlns="http://www.w3.org/2000/svg">
<rect width="52" height="52" fill="#FF008C"/>
<g clip-path="url(#clip0_41446_2893)">
<path d="M21.6646 17.6724V23.6422H21.8016C22.534 23.6422 23.2664 23.6422 23.9988 23.6422C24.1516 23.6422 24.2991 23.6316 24.4519 23.6158C26.1801 23.3945 27.3604 21.6926 26.9652 19.996C26.6438 18.6156 25.4635 17.683 24.0251 17.6672C23.2822 17.6619 22.534 17.6672 21.7911 17.6672C21.7542 17.6672 21.7121 17.6672 21.6699 17.6724M18.0027 14H18.1292C20.105 14 22.0862 14 24.062 14C26.7808 14 29.2203 15.6597 30.2267 18.1835C31.3437 20.9761 30.4427 24.169 28.0137 25.9868C27.9768 26.0132 27.9452 26.0395 27.9031 26.0764C29.705 28.4738 31.507 30.8711 33.3143 33.279C33.2721 33.2843 33.2458 33.2948 33.2141 33.2948C31.7546 33.2948 30.2952 33.2948 28.8357 33.2948C28.7777 33.2948 28.7039 33.2527 28.6671 33.2053C27.2286 31.2926 25.7902 29.38 24.3571 27.4621C24.278 27.3568 24.199 27.3146 24.062 27.3146C23.3138 27.3199 22.5656 27.3146 21.8122 27.3146H21.6541V33.2896H17.9922V14H18.0027Z" fill="white"/>
<path d="M37.207 35.3339C36.6222 35.4182 36.032 35.4973 35.4472 35.5816C34.5251 35.708 33.6031 35.8397 32.681 35.9662C31.6957 36.1032 30.7052 36.2402 29.7199 36.3772C28.6608 36.5247 27.607 36.6722 26.548 36.8198C25.4994 36.9673 24.4509 37.1096 23.4024 37.2571C22.3592 37.4046 21.3159 37.5469 20.2727 37.6944C19.5508 37.7945 18.8237 37.8999 18.1019 37.9947C18.0439 38 17.9649 37.9842 17.9227 37.9473C16.9005 37.0937 15.8836 36.2402 14.8615 35.3866C14.8404 35.3708 14.814 35.3603 14.793 35.3497C14.7982 35.3392 14.8088 35.3287 14.814 35.3181H37.2018V35.3287" fill="white"/>
</g>
<defs>
<clipPath id="clip0_41446_2893">
<rect width="22.4141" height="24" fill="white" transform="translate(14.793 14)"/>
</clipPath>
</defs>
</svg>
